<?xml version="1.0" encoding="utf-8"?>
<!-- Generator: Adobe Illustrator 27.5.0, SVG Export Plug-In . SVG Version: 6.00 Build 0)  -->
<svg version="1.1" xmlns="http://www.w3.org/2000/svg" xmlns:xlink="http://www.w3.org/1999/xlink" x="0px" y="0px"
	 viewBox="0 0 500 500" style="enable-background:new 0 0 500 500;" xml:space="preserve">
<g id="BACKGROUND">
	<rect style="fill:#F0F0F0;" width="500" height="500"/>
</g>
<g id="OBJECTS">
	
		<radialGradient id="SVGID_1_" cx="250" cy="360.6813" r="117.3786" gradientTransform="matrix(1 0 0 0.0989 0 325.0193)" gradientUnits="userSpaceOnUse">
		<stop  offset="0" style="stop-color:#000000"/>
		<stop  offset="1" style="stop-color:#FFFFFF"/>
	</radialGradient>
	<ellipse style="opacity:0.24;fill:url(#SVGID_1_);" cx="250" cy="360.681" rx="117.375" ry="13.464"/>
	<g>
		<g>
			<g>
				
					<linearGradient id="SVGID_00000009567786872766852350000004868401836990037937_" gradientUnits="userSpaceOnUse" x1="142.0201" y1="273.9452" x2="377.5155" y2="273.9452">
					<stop  offset="0" style="stop-color:#2E5280"/>
					<stop  offset="1" style="stop-color:#86EDAA"/>
				</linearGradient>
				<path style="fill:url(#SVGID_00000009567786872766852350000004868401836990037937_);" d="M247.888,361.433
					c94.691-3.155,128.582-44.73,128.582-85.156c0-21.952,13.7-115.815-58.123-83.021c-39.047,17.829-41.363,53.387-66.399,83.779
					c-36.188,43.929-74.993,14.767-89.558,18.618c-7.129,1.885-14.355,4.737-19.203,10.293c-0.416,0.477-0.798,0.972-1.168,1.475
					C154.582,338.625,197.148,363.124,247.888,361.433z"/>
			</g>
			<g>
				
					<linearGradient id="SVGID_00000111169126621497771340000007035293660067882628_" gradientUnits="userSpaceOnUse" x1="172.5365" y1="236.4221" x2="370.5311" y2="236.4221">
					<stop  offset="0" style="stop-color:#86EDAA"/>
					<stop  offset="1" style="stop-color:#2E5280"/>
				</linearGradient>
				<path style="fill:url(#SVGID_00000111169126621497771340000007035293660067882628_);" d="M252.166,280.485
					c29.456-26.131,36.727-66.148,78.07-77.691c17.868-4.989,32.258,3.507,40.296,8.521c-4.566-24.802-17.523-49.088-56.213-31.422
					c-39.047,17.829-40.986,62.557-66.022,92.949c-27.124,32.926-57.004,20.814-75.759,16.295
					C190.126,295.759,217.345,311.375,252.166,280.485z"/>
			</g>
		</g>
		
			<linearGradient id="SVGID_00000118372855289081621040000007728356676476630453_" gradientUnits="userSpaceOnUse" x1="301.2291" y1="92.2654" x2="301.4287" y2="92.2654">
			<stop  offset="0" style="stop-color:#E9A86B"/>
			<stop  offset="0.0387" style="stop-color:#E8A06E"/>
			<stop  offset="0.3247" style="stop-color:#E06881"/>
			<stop  offset="0.4627" style="stop-color:#DD5289"/>
			<stop  offset="1" style="stop-color:#553398"/>
		</linearGradient>
		<path style="fill:url(#SVGID_00000118372855289081621040000007728356676476630453_);" d="M301.429,92.352
			c-0.12-0.104-0.2-0.173-0.2-0.173c0.009,0.015,0.017,0.03,0.026,0.045C301.268,92.233,301.325,92.275,301.429,92.352z"/>
		<g>
			
				<linearGradient id="SVGID_00000137096479992987908720000002541759246475639224_" gradientUnits="userSpaceOnUse" x1="229.1143" y1="193.0047" x2="271.8973" y2="142.5427">
				<stop  offset="0" style="stop-color:#02E4FE"/>
				<stop  offset="1" style="stop-color:#553398"/>
			</linearGradient>
			<circle style="fill:url(#SVGID_00000137096479992987908720000002541759246475639224_);" cx="250" cy="168.37" r="33.458"/>
			
				<linearGradient id="SVGID_00000142150798367424517700000002542842914109489045_" gradientUnits="userSpaceOnUse" x1="244.2814" y1="175.1108" x2="271.8024" y2="142.6501">
				<stop  offset="0" style="stop-color:#02E4FE"/>
				<stop  offset="1" style="stop-color:#553398"/>
			</linearGradient>
			<path style="fill:url(#SVGID_00000142150798367424517700000002542842914109489045_);" d="M250,134.912
				c-10.982,0-20.728,5.292-26.829,13.464c5.249-3.423,11.513-5.419,18.247-5.419c18.479,0,33.458,14.98,33.458,33.458
				c0,7.496-2.466,14.417-6.63,19.995c9.155-5.97,15.212-16.294,15.212-28.039C283.458,149.892,268.479,134.912,250,134.912z"/>
		</g>
		<g>
			<g>
				<g>
					
						<radialGradient id="SVGID_00000104669624604229105430000008269400395601627545_" cx="293.0571" cy="354.9513" r="259.5314" gradientUnits="userSpaceOnUse">
						<stop  offset="0" style="stop-color:#02E4FE"/>
						<stop  offset="1" style="stop-color:#553398"/>
					</radialGradient>
					<path style="fill:url(#SVGID_00000104669624604229105430000008269400395601627545_);" d="M357.144,171.384
						c13.12-20.42-4.891-66.374-4.891-66.374c14.877,10.532,35.565,38.488,40,61.953l7.036-19.274c0,0,8.229,20.79,7.796,68
						c-0.211,23.008-3.089,28.917-3.089,28.917l10.885-14.458c0,0,0,40.98-31.681,79.139c-16.37,19.716-34.815,30.655-62.964,40.88
						c-21.456,7.794-40.422,6.333-40.422,6.333s-17.778-25.715-3.13-44.456C303.044,278.318,333.55,208.104,357.144,171.384z"/>
					
						<linearGradient id="SVGID_00000026122533458173477430000010801589389731533207_" gradientUnits="userSpaceOnUse" x1="337.4879" y1="105.0198" x2="337.4879" y2="357.3076">
						<stop  offset="0" style="stop-color:#02E4FE"/>
						<stop  offset="0.0029" style="stop-color:#03E2FD"/>
						<stop  offset="0.0766" style="stop-color:#16B9E5"/>
						<stop  offset="0.155" style="stop-color:#2796D1"/>
						<stop  offset="0.2411" style="stop-color:#3577BF"/>
						<stop  offset="0.3347" style="stop-color:#415EB1"/>
						<stop  offset="0.4391" style="stop-color:#4A4BA6"/>
						<stop  offset="0.56" style="stop-color:#503D9E"/>
						<stop  offset="0.7127" style="stop-color:#543599"/>
						<stop  offset="1" style="stop-color:#553398"/>
					</linearGradient>
					<path style="fill:url(#SVGID_00000026122533458173477430000010801589389731533207_);" d="M372.874,126.48
						c-6.974-9.649-14.003-16.776-20.62-21.46c0,0,12.221,31.21,9.175,53.619c1.387,2.725,2.63,5.44,3.652,8.12
						c12.935,33.941,22.968,84.331,1.798,125.745c-24.886,48.684-83.13,64.708-84.015,64.618
						c11.688,1.184,29.077-3.568,37.373-6.946C423.338,308.202,390.419,170.72,372.874,126.48z"/>
				</g>
				<g>
					
						<radialGradient id="SVGID_00000104686010268321159970000001685351288554568081_" cx="278.2325" cy="354.8351" r="269.1205" gradientUnits="userSpaceOnUse">
						<stop  offset="0" style="stop-color:#E9A86B"/>
						<stop  offset="0.0387" style="stop-color:#E8A06E"/>
						<stop  offset="0.3247" style="stop-color:#E06881"/>
						<stop  offset="0.4627" style="stop-color:#DD5289"/>
						<stop  offset="1" style="stop-color:#553398"/>
					</radialGradient>
					<path style="fill:url(#SVGID_00000104686010268321159970000001685351288554568081_);" d="M305.301,92.179
						c0,0,46.625,40.053,59.78,74.57c12.935,33.941,22.968,84.331,1.798,125.745c-28.061,54.894-68.497,64.336-81.503,64.738
						c-9.612,0.297-31.798-5.99-31.138-33.299c0.7-28.983,41.726-69.374,54.422-94.344
						C320.992,205.334,341.374,153.974,305.301,92.179z"/>
					
						<linearGradient id="SVGID_00000031203650429645024040000005908291674545724580_" gradientUnits="userSpaceOnUse" x1="254.2077" y1="224.7765" x2="328.5847" y2="224.7765">
						<stop  offset="0" style="stop-color:#E9A86B"/>
						<stop  offset="0.0387" style="stop-color:#E8A06E"/>
						<stop  offset="0.3247" style="stop-color:#E06881"/>
						<stop  offset="0.4627" style="stop-color:#DD5289"/>
						<stop  offset="1" style="stop-color:#553398"/>
					</linearGradient>
					<path style="fill:url(#SVGID_00000031203650429645024040000005908291674545724580_);" d="M269.664,325.539
						c0.487-36.544,34.108-63.506,47.017-99.726c9.129-25.615,26.209-73.901-11.304-133.501
						c35.966,61.736,15.606,113.04,3.284,137.276c-12.696,24.97-53.398,65.47-54.422,94.344
						c-0.969,27.3,21.526,33.597,31.138,33.299c1.937-0.06,4.461-0.323,7.461-0.893C280.492,358.374,269.434,342.75,269.664,325.539
						z"/>
				</g>
			</g>
			<g>
				<g>
					
						<radialGradient id="SVGID_00000133505440196544836810000007754580331791925658_" cx="416.9229" cy="354.9513" r="259.5314" gradientTransform="matrix(-1 0 0 1 623.8658 0)" gradientUnits="userSpaceOnUse">
						<stop  offset="0" style="stop-color:#02E4FE"/>
						<stop  offset="1" style="stop-color:#553398"/>
					</radialGradient>
					<path style="fill:url(#SVGID_00000133505440196544836810000007754580331791925658_);" d="M142.855,171.384
						c-13.12-20.42,4.891-66.374,4.891-66.374c-14.877,10.532-35.564,38.488-40,61.953l-7.036-19.274c0,0-8.229,20.79-7.796,68
						c0.211,23.008,3.089,28.917,3.089,28.917l-10.885-14.458c0,0,0,40.98,31.681,79.139c16.37,19.716,34.815,30.655,62.964,40.88
						c21.456,7.794,40.422,6.333,40.422,6.333s17.778-25.715,3.13-44.456C196.956,278.318,166.45,208.104,142.855,171.384z"/>
					
						<linearGradient id="SVGID_00000155848670824011284570000010063133762700159665_" gradientUnits="userSpaceOnUse" x1="461.3537" y1="105.0198" x2="461.3537" y2="357.3076" gradientTransform="matrix(-1 0 0 1 623.8658 0)">
						<stop  offset="0" style="stop-color:#02E4FE"/>
						<stop  offset="0.0029" style="stop-color:#03E2FD"/>
						<stop  offset="0.0766" style="stop-color:#16B9E5"/>
						<stop  offset="0.155" style="stop-color:#2796D1"/>
						<stop  offset="0.2411" style="stop-color:#3577BF"/>
						<stop  offset="0.3347" style="stop-color:#415EB1"/>
						<stop  offset="0.4391" style="stop-color:#4A4BA6"/>
						<stop  offset="0.56" style="stop-color:#503D9E"/>
						<stop  offset="0.7127" style="stop-color:#543599"/>
						<stop  offset="1" style="stop-color:#553398"/>
					</linearGradient>
					<path style="fill:url(#SVGID_00000155848670824011284570000010063133762700159665_);" d="M127.126,126.48
						c6.974-9.649,14.003-16.776,20.619-21.46c0,0-12.221,31.21-9.175,53.619c-1.388,2.725-2.631,5.44-3.652,8.12
						c-12.935,33.941-22.968,84.331-1.798,125.745c24.886,48.684,83.13,64.708,84.015,64.618
						c-11.688,1.184-29.077-3.568-37.373-6.946C76.662,308.202,109.581,170.72,127.126,126.48z"/>
				</g>
				<g>
					
						<radialGradient id="SVGID_00000178893818421734628220000013864620659752345482_" cx="402.0983" cy="354.8351" r="269.1205" gradientTransform="matrix(-1 0 0 1 623.8658 0)" gradientUnits="userSpaceOnUse">
						<stop  offset="0" style="stop-color:#E9A86B"/>
						<stop  offset="0.0387" style="stop-color:#E8A06E"/>
						<stop  offset="0.3247" style="stop-color:#E06881"/>
						<stop  offset="0.4627" style="stop-color:#DD5289"/>
						<stop  offset="1" style="stop-color:#553398"/>
					</radialGradient>
					<path style="fill:url(#SVGID_00000178893818421734628220000013864620659752345482_);" d="M194.699,92.179
						c0,0-46.626,40.053-59.78,74.57c-12.935,33.941-22.968,84.331-1.798,125.745c28.061,54.894,68.497,64.336,81.503,64.738
						c9.612,0.297,31.798-5.99,31.138-33.299c-0.7-28.983-41.726-69.374-54.422-94.344
						C179.008,205.334,158.626,153.974,194.699,92.179z"/>
					
						<linearGradient id="SVGID_00000136387938428150221550000016946737745008747915_" gradientUnits="userSpaceOnUse" x1="378.0735" y1="224.7765" x2="452.4505" y2="224.7765" gradientTransform="matrix(-1 0 0 1 623.8658 0)">
						<stop  offset="0" style="stop-color:#E9A86B"/>
						<stop  offset="0.0387" style="stop-color:#E8A06E"/>
						<stop  offset="0.3247" style="stop-color:#E06881"/>
						<stop  offset="0.4627" style="stop-color:#DD5289"/>
						<stop  offset="1" style="stop-color:#553398"/>
					</linearGradient>
					<path style="fill:url(#SVGID_00000136387938428150221550000016946737745008747915_);" d="M230.336,325.539
						c-0.487-36.544-34.108-63.506-47.017-99.726c-9.129-25.615-26.209-73.901,11.304-133.501
						c-35.966,61.736-15.606,113.04-3.284,137.276c12.696,24.97,53.398,65.47,54.422,94.344c0.969,27.3-21.526,33.597-31.138,33.299
						c-1.937-0.06-4.461-0.323-7.461-0.893C219.508,358.374,230.566,342.75,230.336,325.539z"/>
				</g>
			</g>
		</g>
	</g>
	<g>
		<rect x="135.98" y="416.879" style="fill:none;" width="228.039" height="14.943"/>
		<text transform="matrix(1 0 0 1 143.085 430.1317)" style="fill:#2E5280; font-family:'Lato-Light'; font-size:18.191px;"></text>
		<g>
			<rect x="160.886" y="388.293" style="fill:none;" width="88.356" height="23.389"/>
			<text transform="matrix(1 0 0 1 162.0063 411.0116)" style="fill:#8168B3; font-family:'Lato-Light'; font-size:31.1846px;">BizTrack</text>
			<rect x="247.293" y="387.751" style="fill:none;" width="91.821" height="24.471"/>
			<text transform="matrix(1 0 0 1 248.9365 410.9198)" style="fill:#553398; font-family:'Lato-Bold'; font-size:31.1846px;"></text>
		</g>
	</g>
</g>
<g id="DESIGNED_BY_FREEPIK">
</g>
</svg>
